<?xml version="1.0" standalone="no"?>
<!DOCTYPE svg PUBLIC "-//W3C//DTD SVG 20010904//EN"
 "http://www.w3.org/TR/2001/REC-SVG-20010904/DTD/svg10.dtd">
<svg version="1.0" xmlns="http://www.w3.org/2000/svg"
 width="846.000000pt" height="182.000000pt" viewBox="0 0 423.000000 91.000000"
 preserveAspectRatio="xMidYMid meet">
<g transform="translate(0.000000,91.000000) scale(0.100000,-0.100000)"
fill="#000000" stroke="none">
<path d="M1422 809 c-19 -6 -67 -42 -110 -84 -75 -73 -76 -74 -47 -75 17 -1
39 -5 50 -9 16 -7 29 1 66 39 56 58 99 71 138 43 20 -15 27 -30 29 -62 3 -41
0 -45 -80 -128 -46 -47 -98 -92 -116 -100 -31 -13 -38 -12 -78 8 -37 17 -47
19 -60 8 -49 -40 38 -115 120 -102 23 3 52 12 66 19 38 19 207 195 219 227 49ś
131 -65 256 -197 216z"/>ś
<path d="M139 652 c-24 -21 -32 -38 -36 -76 l-6 -48 82 -78 c45 -44 81 -86 81
-97 0 -25 -19 -43 -45 -43 -30 0 -45 19 -45 57 0 31 -2 33 -35 33 -35 0 -35 0
-35 -45 0 -35 6 -52 29 -77 27 -30 35 -33 86 -33 51 0 59 3 86 33 23 26 29 42
29 78 0 45 -3 49 -75 118 -79 75 -96 114 -57 135 30 16 52 -5 52 -49 0 -39 1
-40 35 -40 35 0 35 0 35 46 0 56 -12 79 -50 99 -46 24 -95 19 -131 -13z"/>
<path d="M715 668 c-50 -27 -55 -43 -55 -205 0 -153 0 -153 28 -183 34 -39 91
-49 145 -26 55 23 67 59 67 208 0 136 -14 182 -60 205 -31 16 -98 16 -125 1z
m88 -61 c15 -11 17 -29 15 -152 l-3 -140 -28 -3 c-52 -6 -57 8 -57 149 0 103
3 131 16 143 19 19 35 20 57 3z"/>
<path d="M3565 668 c-50 -27 -55 -43 -55 -205 0 -153 0 -153 28 -183 34 -39
93 -50 143 -26 49 23 62 50 67 144 l5 82 -62 0 -61 0 0 -30 c0 -23 4 -30 20
-30 17 0 20 -7 20 -39 0 -56 -8 -71 -39 -71 -46 0 -51 14 -51 151 0 139 10
167 54 153 28 -9 36 -22 36 -61 0 -31 2 -33 35 -33 34 0 35 1 35 40 0 52 -18
88 -51 106 -33 17 -96 18 -124 2z"/>
<path d="M3875 668 c-38 -21 -55 -51 -55 -101 0 -48 2 -51 76 -121 65 -62 75
-76 72 -102 -3 -26 -7 -29 -38 -29 -34 0 -35 1 -38 43 -3 42 -3 42 -43 42 -38
0 -39 -1 -39 -35 0 -48 24 -91 60 -110 63 -33 141 -9 167 52 25 60 12 91 -72
172 -41 40 -75 78 -75 86 0 28 13 45 36 45 26 0 44 -26 44 -64 0 -23 4 -26 36
-26 l37 0 -5 52 c-4 42 -11 57 -37 80 -34 30 -88 37 -126 16z"/>
<path d="M400 460 l0 -210 95 0 95 0 0 30 c0 28 -1 29 -57 32 l-58 3 -3 58 -3
57 36 0 c32 0 35 2 35 30 0 28 -3 30 -35 30 l-35 0 0 60 0 60 55 0 c54 0 55 0
55 30 l0 30 -90 0 -90 0 0 -210z"/>
<path d="M1690 460 l0 -210 65 0 c81 0 129 19 149 59 27 51 17 140 -18 163 -7
5 -7 14 1 30 20 42 22 56 12 93 -15 53 -57 75 -141 75 l-68 0 0 -210z m128
138 c7 -7 12 -24 12 -38 0 -32 -17 -50 -47 -50 -21 0 -23 4 -23 50 0 46 2 50
23 50 13 0 28 -5 35 -12z m3 -158 c15 -8 19 -21 19 -60 0 -52 -15 -70 -59 -70
-19 0 -21 6 -21 70 0 64 2 70 21 70 11 0 29 -5 40 -10z"/>
<path d="M1980 500 c0 -133 3 -177 15 -200 28 -55 105 -76 165 -45 53 27 60
56 60 245 l0 170 -35 0 -35 0 0 -154 c0 -184 -6 -209 -52 -204 l-33 3 -3 178
-2 177 -40 0 -40 0 0 -170z"/>
<path d="M2300 460 l0 -210 35 0 35 0 0 210 0 210 -35 0 -35 0 0 -210z"/>
<path d="M2460 460 l0 -210 100 0 100 0 0 30 c0 29 -1 29 -62 32 l-63 3 -3
178 -2 177 -35 0 -35 0 0 -210z"/>
<path d="M2720 459 l0 -211 86 3 c82 4 87 5 115 37 29 32 29 32 29 167 0 75
-5 145 -11 158 -18 41 -59 57 -143 57 l-76 0 0 -211z m141 141 c17 -10 19 -22
19 -133 0 -67 -4 -128 -9 -135 -4 -8 -24 -14 -42 -15 l-34 -2 -3 148 -3 147
26 0 c15 0 35 -5 46 -10z"/>
<path d="M3030 460 l0 -210 40 0 40 0 0 210 0 210 -40 0 -40 0 0 -210z"/>
<path d="M3190 460 l0 -210 40 0 40 0 1 118 1 117 40 -117 40 -118 34 0 34 0
0 210 0 210 -35 0 -34 0 -3 -102 -3 -103 -33 103 -33 102 -44 0 -45 0 0 -210z"/>
<path d="M1211 587 c-36 -7 -60 -24 -137 -99 -109 -105 -139 -157 -131 -225 6
-55 31 -90 83 -120 75 -43 137 -24 237 75 l67 66 -42 11 c-42 11 -44 11 -88
-31 -76 -71 -114 -81 -155 -39 -16 15 -25 35 -25 56 0 27 15 47 99 133 89 89
103 100 135 100 19 0 43 -8 54 -17 25 -23 49 -21 62 4 14 26 8 43 -24 64 -37
25 -85 32 -135 22z"/>
</g>
</svg>
